<?xml version="1.0" encoding="UTF-8"?>
<svg width="92px" height="83px" viewBox="0 0 92 83" version="1.1" xmlns="http://www.w3.org/2000/svg" xmlns:xlink="http://www.w3.org/1999/xlink">
    <!-- Generator: Sketch 43.2 (39069) - http://www.bohemiancoding.com/sketch -->
    <title>calendar-add</title>
    <desc>Created with Sketch.</desc>
    <defs></defs>
    <g id="Page-1" stroke="none" stroke-width="1" fill="none" fill-rule="evenodd">
        <g id="iPad-Pro-Portrait" transform="translate(-571.000000, -187.000000)">
            <g id="calendar-add" transform="translate(553.000000, 164.000000)">
                <rect id="bounds" x="0" y="0" width="128" height="128"></rect>
                <path d="M57.688,38 L70.312,38 C72.521,38 74.312,36.209 74.312,34 C74.312,31.791 72.521,30 70.312,30 L57.688,30 C55.479,30 53.688,31.791 53.688,34 C53.688,36.209 55.479,38 57.688,38 L57.688,38 Z M26,98 L102,98 L102,62 L26,62 L26,98 Z M110,34.37 L110,102 C110,104.209 108.209,106 106,106 L22,106 C19.791,106 18,104.209 18,102 L18,34.37 C18,32.161 19.791,30 22,30 L31.349,30 C33.558,30 35.349,31.791 35.349,34 C35.349,36.209 33.558,38 31.349,38 L26,38 L26,55 L102,55 L102,38 L96.65,38 C94.441,38 92.65,36.209 92.65,34 C92.65,31.791 94.441,30 96.65,30 L106,30 C108.209,30 110,32.161 110,34.37 L110,34.37 Z M83,45.806 C85.761,45.806 88,43.567 88,40.806 L88,28 C88,25.239 85.761,23 83,23 C80.238,23 78,25.239 78,28 L78,40.806 C78,43.567 80.238,45.806 83,45.806 L83,45.806 Z M68,76 L68,71.990053 C68,69.7842933 66.209139,68 64,68 C61.7953562,68 60,69.7864076 60,71.990053 L60,76 L55.990053,76 C53.7842933,76 52,77.790861 52,80 C52,82.2046438 53.7864076,84 55.990053,84 L60,84 L60,88.009947 C60,90.2157067 61.790861,92 64,92 C66.2046438,92 68,90.2135924 68,88.009947 L68,84 L72.009947,84 C74.2157067,84 76,82.209139 76,80 C76,77.7953562 74.2135924,76 72.009947,76 L68,76 Z M40,40.806 L40,28 C40,25.239 42.238,23 45,23 C47.761,23 50,25.239 50,28 L50,40.806 C50,43.567 47.761,45.806 45,45.806 C42.238,45.806 40,43.567 40,40.806 Z" fill="#FFFFFF"></path>
            </g>
        </g>
    </g>
</svg>