<?xml version="1.0" encoding="UTF-8"?>
<svg width="92px" height="83px" viewBox="0 0 92 83" version="1.1" xmlns="http://www.w3.org/2000/svg" xmlns:xlink="http://www.w3.org/1999/xlink">
    <!-- Generator: Sketch 43.2 (39069) - http://www.bohemiancoding.com/sketch -->
    <title>calendar</title>
    <desc>Created with Sketch.</desc>
    <defs></defs>
    <g id="Page-1" stroke="none" stroke-width="1" fill="none" fill-rule="evenodd">
        <g id="iPad-Pro-Portrait" transform="translate(-370.000000, -179.000000)">
            <g id="calendar" transform="translate(352.000000, 157.000000)">
                <rect id="bounds" x="0" y="0" width="128" height="128"></rect>
                <path d="M57.688,37 L70.312,37 C72.521,37 74.312,35.209 74.312,33 C74.312,30.791 72.521,29 70.312,29 L57.688,29 C55.479,29 53.688,30.791 53.688,33 C53.688,35.209 55.479,37 57.688,37 L57.688,37 Z M26,97 L102,97 L102,61 L26,61 L26,97 Z M110,33.37 L110,101 C110,103.209 108.209,105 106,105 L22,105 C19.791,105 18,103.209 18,101 L18,33.37 C18,31.161 19.791,29 22,29 L31.349,29 C33.558,29 35.349,30.791 35.349,33 C35.349,35.209 33.558,37 31.349,37 L26,37 L26,54 L102,54 L102,37 L96.65,37 C94.441,37 92.65,35.209 92.65,33 C92.65,30.791 94.441,29 96.65,29 L106,29 C108.209,29 110,31.161 110,33.37 L110,33.37 Z M83,44.806 C85.761,44.806 88,42.567 88,39.806 L88,27 C88,24.239 85.761,22 83,22 C80.238,22 78,24.239 78,27 L78,39.806 C78,42.567 80.238,44.806 83,44.806 L83,44.806 Z M40,39.806 L40,27 C40,24.239 42.238,22 45,22 C47.761,22 50,24.239 50,27 L50,39.806 C50,42.567 47.761,44.806 45,44.806 C42.238,44.806 40,42.567 40,39.806 L40,39.806 Z" fill="#333333"></path>
            </g>
        </g>
    </g>
</svg>