<?xml version="1.0" encoding="UTF-8"?>
<svg width="92px" height="92px" viewBox="0 0 92 92" version="1.1" xmlns="http://www.w3.org/2000/svg" xmlns:xlink="http://www.w3.org/1999/xlink">
    <!-- Generator: Sketch 43.2 (39069) - http://www.bohemiancoding.com/sketch -->
    <title>edit</title>
    <desc>Created with Sketch.</desc>
    <defs></defs>
    <g id="Page-1" stroke="none" stroke-width="1" fill="none" fill-rule="evenodd">
        <g id="iPad-Pro-Portrait" transform="translate(-673.000000, -540.000000)">
            <g id="edit" transform="translate(655.000000, 522.000000)">
                <rect id="Rectangle-2" x="0" y="0" width="128" height="128"></rect>
                <path d="M101.439074,32.466 L46.2050742,87.698 L40.3560742,81.849 L95.5370742,26.567 C96.0290742,26.073 96.6030742,26 96.9020742,26 C97.2000742,26 97.7740742,26.073 98.2670742,26.566 L101.439074,29.738 C102.191074,30.49 102.191074,31.714 101.439074,32.466 L101.439074,32.466 Z M32.7710742,89.666 L38.3910742,95.286 L29.1050742,98.922 L32.7710742,89.666 Z M107.097074,24.082 L103.924074,20.91 C102.049074,19.033 99.5560742,18 96.9030742,18 L96.9010742,18 C94.2460742,18.001 91.7510742,19.036 89.8750742,20.915 L26.6690742,84.237 C26.2830742,84.622 25.9820742,85.083 25.7810742,85.59 L18.2810742,104.527 C17.6950742,106.008 18.0420742,107.695 19.1660742,108.822 C19.9310742,109.591 20.9560742,110 22.0010742,110 C22.4910742,110 22.9850742,109.91 23.4590742,109.724 L42.4570742,102.286 C42.9710742,102.085 43.4370742,101.779 43.8270742,101.39 L107.096074,38.123 C110.967074,34.254 110.968074,27.955 107.097074,24.082 L107.097074,24.082 Z" id="pencil" fill="#333333"></path>
            </g>
        </g>
    </g>
</svg>