<?xml version="1.0" encoding="UTF-8"?>
<svg width="92px" height="92px" viewBox="0 0 92 92" version="1.1" xmlns="http://www.w3.org/2000/svg" xmlns:xlink="http://www.w3.org/1999/xlink">
    <!-- Generator: Sketch 43.2 (39069) - http://www.bohemiancoding.com/sketch -->
    <title>home</title>
    <desc>Created with Sketch.</desc>
    <defs></defs>
    <g id="Page-1" stroke="none" stroke-width="1" fill="none" fill-rule="evenodd">
        <g id="iPad-Pro-Portrait" transform="translate(-447.000000, -485.000000)">
            <g id="home" transform="translate(429.000000, 467.000000)">
                <rect id="bounds" x="0" y="0" width="128" height="128"></rect>
                <path d="M97.2457882,105.99975 L97.2457882,66.91375 C97.2457882,64.70475 95.4547882,62.91375 93.2457882,62.91375 C91.0367882,62.91375 89.2457882,64.70475 89.2457882,66.91375 L89.2457882,101.99975 L76.7467882,101.99975 L76.7467882,80.61275 C76.7467882,77.68575 74.3657882,75.30475 71.4387882,75.30475 L56.5597882,75.30475 C53.6337882,75.30475 51.2517882,77.68575 51.2517882,80.61275 L51.2517882,101.99975 L38.7547882,101.99975 L38.7547882,66.91375 C38.7547882,64.70475 36.9637882,62.91375 34.7547882,62.91375 C32.5457882,62.91375 30.7547882,64.70475 30.7547882,66.91375 L30.7547882,105.99975 C30.7547882,108.20875 32.5457882,109.99975 34.7547882,109.99975 L55.2517882,109.99975 C57.4607882,109.99975 59.2517882,108.20875 59.2517882,105.99975 L59.2517882,83.30475 L68.7467882,83.30475 L68.7467882,105.99975 C68.7467882,108.20875 70.5377882,109.99975 72.7467882,109.99975 L93.2457882,109.99975 C95.4547882,109.99975 97.2457882,108.20875 97.2457882,105.99975 M105.999788,67.00875 C104.992788,67.00875 103.983788,66.63075 103.205788,65.87075 L64.0007882,27.58975 L24.7947882,65.87075 C23.2137882,67.41575 20.6807882,67.38375 19.1377882,65.80375 C17.5947882,64.22275 17.6247882,61.68975 19.2057882,60.14675 L61.2057882,19.13775 C62.7597882,17.62075 65.2417882,17.62075 66.7947882,19.13775 L108.794788,60.14675 C110.374788,61.68975 110.405788,64.22275 108.861788,65.80375 C108.078788,66.60575 107.039788,67.00875 105.999788,67.00875" fill="#333333"></path>
            </g>
        </g>
    </g>
</svg>