<?xml version="1.0" encoding="UTF-8"?>
<svg width="92px" height="80px" viewBox="0 0 92 80" version="1.1" xmlns="http://www.w3.org/2000/svg" xmlns:xlink="http://www.w3.org/1999/xlink">
    <!-- Generator: Sketch 43.2 (39069) - http://www.bohemiancoding.com/sketch -->
    <title>message</title>
    <desc>Created with Sketch.</desc>
    <defs></defs>
    <g id="Page-1" stroke="none" stroke-width="1" fill="none" fill-rule="evenodd">
        <g id="iPad-Pro-Portrait" transform="translate(-480.000000, -349.000000)">
            <g id="message" transform="translate(462.000000, 325.000000)">
                <rect id="bounds" x="0" y="0" width="128" height="128"></rect>
                <path d="M80.54,49.06 C79.8,48.32 79.37,47.29 79.37,46.24 C79.37,45.18 79.8,44.15 80.54,43.41 C81.29,42.66 82.32,42.24 83.37,42.24 C84.43,42.24 85.46,42.66 86.2,43.41 C86.94,44.15 87.37,45.19 87.37,46.24 C87.37,47.29 86.94,48.32 86.2,49.06 C85.45,49.81 84.42,50.24 83.37,50.24 C82.32,50.24 81.29,49.81 80.54,49.06 L80.54,49.06 Z M36.638,46 C36.638,43.791 38.429,42 40.638,42 L69.596,42 C71.805,42 73.596,43.791 73.596,46 C73.596,48.209 71.805,50 69.596,50 L40.638,50 C38.429,50 36.638,48.209 36.638,46 L36.638,46 Z M102,75 L91.179,75 C90.004,75 88.668,75.55 87.908,76.447 L77,89.093 L77,79.067 C77,76.858 75.647,75 73.438,75 L26,75 L26,32 L102,32 L102,75 Z M106,24 L22,24 C19.791,24 18,25.791 18,28 L18,79.067 C18,81.276 19.791,83 22,83 L69,83 L69,100 C69,101.678 70.267,103.178 71.842,103.755 C72.292,103.92 72.867,104 73.328,104 C74.481,104 75.66,103.467 76.435,102.552 L93.033,83 L106,83 C108.209,83 110,81.276 110,79.067 L110,28 C110,25.791 108.209,24 106,24 L106,24 Z" fill="#333333"></path>
            </g>
        </g>
    </g>
</svg>