<?xml version="1.0" encoding="UTF-8"?>
<svg width="111px" height="83px" viewBox="0 0 111 83" version="1.1" xmlns="http://www.w3.org/2000/svg" xmlns:xlink="http://www.w3.org/1999/xlink">
    <!-- Generator: Sketch 43.2 (39069) - http://www.bohemiancoding.com/sketch -->
    <title>paper-plane</title>
    <desc>Created with Sketch.</desc>
    <defs></defs>
    <g id="Page-1" stroke="none" stroke-width="1" fill="none" fill-rule="evenodd">
        <g id="iPad-Pro-Portrait" transform="translate(-717.000000, -187.000000)">
            <g id="paper-plane" transform="translate(709.000000, 164.000000)">
                <rect id="bounds" x="0" y="0" width="128" height="128"></rect>
                <path d="M10.7042029,58.2575518 C6.97950008,57.0107763 7.14448965,51.7268216 10.9398296,50.7113735 L113.980579,23.1426877 C117.316659,22.2501152 120.131953,25.7166935 118.54495,28.7629703 L79.4183431,103.867087 C78.0561202,106.481894 74.392661,106.747931 72.6615085,104.357762 L61.9374452,89.5512523 L49.9202875,97.8363695 C47.1238042,99.7643789 43.3390615,97.5370337 43.701677,94.1766776 L46.2922354,70.169989 L10.7042029,58.2575518 Z M90.993137,37.4471001 L25.6332052,54.9363608 L50.3619017,63.1282799 L90.993137,37.4471001 Z M52.4894226,86.4048518 L57.2420379,83.1645602 L53.4597491,78.0256471 L52.4894226,86.4048518 Z M75.3189142,94.5605266 L104.747062,38.0727489 L56.2863112,68.5281178 L75.3189142,94.5605266 Z" fill="#FFFFFF" fill-rule="nonzero"></path>
            </g>
        </g>
    </g>
</svg>